# xmcd
#
# Track frame offsets:
#	150
#	11515
#	28625
#	42176
#	62249
#	71027
#	88258
#	105002
#	119052
#	134258
#	146902
#	165393
#	179101
#	194048
#	206894
#	218939
#	233316
#	247039
#	259280
#	281221
#
# Disc length: 3922 seconds
#
# Revision: 1
# Processed by: cddbd v1.5.2PL0 Copyright (c) Steve Scherf et al.
# Submitted via: audiograbber 1.83.01
#
DISCID=3c0f5014
DTITLE=Compilation - Liebling Luitpold
DYEAR=2010
DGENRE=Blues
TTITLE0=Pearl Bailey - You Can Be Replaced
TTITLE1=G Rag Y Los Hermanos Patchekos - Swing 39
TTITLE2=Universal Gonzáles - Quererse
TTITLE3=Abbey Lincoln - Ain't Nobody's Business
TTITLE4=Joao Gilberto - Chega De Saudade
TTITLE5=Coco Schumann - Exotique
TTITLE6=Soumaya Baalbaki - Ashanak Ya Amar
TTITLE7=Chico O' Farrill - Cuban Blues
TTITLE8=Louis Armstrong - St James Infirmary
TTITLE9=The-Ray-O-Vacs - Besame Mucho
TTITLE10=Nina Simone - Love Me Or Leave Me
TTITLE11=Harmony Sisters - Pieni Sydän
TTITLE12=H Britton - Pandu Lampiaum
TTITLE13=Carlos Augusto - Negue
TTITLE14=Rosemary Clooney and Duke Ellington Orchestra - Just A-Sittin' And A-Roc
TTITLE14=kin'
TTITLE15=Earl Grant - Fever
TTITLE16=Billie Holiday - My Man
TTITLE17=Israel Cachao Lopez - Cògele El Golpe
TTITLE18=Orientation - Sen Gülünce
TTITLE19=Coconami - Tagträumer
EXTD=Trikont, München\n"Swing, Rumba and Kaffeehaus-Blues"
EXTT0=
EXTT1=
EXTT2=
EXTT3=
EXTT4=
EXTT5=
EXTT6=
EXTT7=
EXTT8=
EXTT9=
EXTT10=
EXTT11=
EXTT12=
EXTT13=
EXTT14=
EXTT15=
EXTT16=
EXTT17=
EXTT18=
EXTT19=
PLAYORDER=
